<svg id="visual" viewBox="0 0 900 600" width="900" height="600" xmlns="http://www.w3.org/2000/svg" xmlns:xlink="http://www.w3.org/1999/xlink" version="1.1"><rect x="0" y="0" width="900" height="600" fill="#314759"></rect><path d="M0 424L21.5 421.8C43 419.7 86 415.3 128.8 422.8C171.7 430.3 214.3 449.7 257.2 454.5C300 459.3 343 449.7 385.8 447C428.7 444.3 471.3 448.7 514.2 450.2C557 451.7 600 450.3 642.8 443.5C685.7 436.7 728.3 424.3 771.2 423.5C814 422.7 857 433.3 878.5 438.7L900 444L900 601L878.5 601C857 601 814 601 771.2 601C728.3 601 685.7 601 642.8 601C600 601 557 601 514.2 601C471.3 601 428.7 601 385.8 601C343 601 300 601 257.2 601C214.3 601 171.7 601 128.8 601C86 601 43 601 21.5 601L0 601Z" fill="#466681"></path><path d="M0 487L21.5 481.5C43 476 86 465 128.8 463.2C171.7 461.3 214.3 468.7 257.2 465.8C300 463 343 450 385.8 448.8C428.7 447.7 471.3 458.3 514.2 464C557 469.7 600 470.3 642.8 471.3C685.7 472.3 728.3 473.7 771.2 468C814 462.3 857 449.7 878.5 443.3L900 437L900 601L878.5 601C857 601 814 601 771.2 601C728.3 601 685.7 601 642.8 601C600 601 557 601 514.2 601C471.3 601 428.7 601 385.8 601C343 601 300 601 257.2 601C214.3 601 171.7 601 128.8 601C86 601 43 601 21.5 601L0 601Z" fill="#43617e"></path><path d="M0 506L21.5 506.2C43 506.3 86 506.7 128.8 504.7C171.7 502.7 214.3 498.3 257.2 492.3C300 486.3 343 478.7 385.8 476C428.7 473.3 471.3 475.7 514.2 480.8C557 486 600 494 642.8 496C685.7 498 728.3 494 771.2 496C814 498 857 506 878.5 510L900 514L900 601L878.5 601C857 601 814 601 771.2 601C728.3 601 685.7 601 642.8 601C600 601 557 601 514.2 601C471.3 601 428.7 601 385.8 601C343 601 300 601 257.2 601C214.3 601 171.7 601 128.8 601C86 601 43 601 21.5 601L0 601Z" fill="#405c7a"></path><path d="M0 534L21.5 534.3C43 534.7 86 535.3 128.8 534.7C171.7 534 214.3 532 257.2 532C300 532 343 534 385.8 537C428.7 540 471.3 544 514.2 540.8C557 537.7 600 527.3 642.8 523.8C685.7 520.3 728.3 523.7 771.2 526.3C814 529 857 531 878.5 532L900 533L900 601L878.5 601C857 601 814 601 771.2 601C728.3 601 685.7 601 642.8 601C600 601 557 601 514.2 601C471.3 601 428.7 601 385.8 601C343 601 300 601 257.2 601C214.3 601 171.7 601 128.8 601C86 601 43 601 21.5 601L0 601Z" fill="#3e5777"></path><path d="M0 569L21.5 568.3C43 567.7 86 566.3 128.8 567C171.7 567.7 214.3 570.3 257.2 570.3C300 570.3 343 567.7 385.8 566.3C428.7 565 471.3 565 514.2 561.3C557 557.7 600 550.3 642.8 551.3C685.7 552.3 728.3 561.7 771.2 564.5C814 567.3 857 563.7 878.5 561.8L900 560L900 601L878.5 601C857 601 814 601 771.2 601C728.3 601 685.7 601 642.8 601C600 601 557 601 514.2 601C471.3 601 428.7 601 385.8 601C343 601 300 601 257.2 601C214.3 601 171.7 601 128.8 601C86 601 43 601 21.5 601L0 601Z" fill="#3c5273"></path></svg>